<?xml version="1.0" encoding="utf-8"?>
<!-- Generator: Adobe Illustrator 19.1.0, SVG Export Plug-In . SVG Version: 6.00 Build 0)  -->
<svg version="1.1" id="Calque_1" xmlns="http://www.w3.org/2000/svg" xmlns:xlink="http://www.w3.org/1999/xlink" x="0px" y="0px"
	 width="152px" height="19px" viewBox="-403 271 152 19" style="enable-background:new -403 271 152 19;" xml:space="preserve">
<style type="text/css">
	.st0{fill:#628FEA;}
</style>
<path class="st0" d="M-252.2,284.4c0.5,0,1,0.3,1.2,0.8c0.2,0.8-0.4,1.5-1.1,1.5h-9c-0.7,0-1.4-0.6-1.4-1.3v-11.7
	c0-0.7,0.6-1.3,1.4-1.3h8.8c0.5,0,1,0.3,1.2,0.8c0.2,0.8-0.4,1.5-1.1,1.5h-7.5v3.7h6.6c0.7,0,1.3,0.6,1.2,1.3c-0.1,0.5-0.7,1-1.2,1
	h-6.5v3.8H-252.2z M-265.2,284.6c0.3,0.3,0.4,0.6,0.4,1c0,0.7-0.6,1.2-1.3,1.2c-0.6,0-1-0.3-1.3-0.7l-3.7-4.4h-3.4v3.8
	c0,0.6-0.5,1.2-1.2,1.3c-0.8,0.1-1.5-0.5-1.5-1.2v-11.8c0-0.7,0.6-1.3,1.4-1.3h5.5c1.9,0,3.4,0.5,4.4,1.4c0.8,0.8,1.3,1.8,1.3,3.1v0
	c0,2.3-1.4,3.7-3.5,4.3L-265.2,284.6z M-267.4,277.1L-267.4,277.1c0-1.6-1.2-2.4-3.2-2.4h-3.9v4.8h3.9
	C-268.6,279.4-267.4,278.5-267.4,277.1z M-286.4,286.8c-4,0-6.5-2.1-6.5-6.3v-7.1c0-0.7,0.7-1.3,1.5-1.2c0.7,0.1,1.2,0.7,1.2,1.3
	v6.9c0,2.6,1.5,4,3.9,4c2.4,0,3.8-1.3,3.8-3.9v-7.1c0-0.7,0.7-1.3,1.5-1.2c0.7,0.1,1.2,0.7,1.2,1.3v6.9
	C-279.9,284.7-282.4,286.8-286.4,286.8z M-300.5,286.8c-2.1,0-4-0.6-5.7-1.8c-0.3-0.2-0.5-0.6-0.5-1c0-0.7,0.8-1.2,1.5-1.1
	c0.2,0,0.4,0.1,0.5,0.2c1.3,0.9,2.6,1.5,4.3,1.5c1.7,0,2.7-0.7,2.7-1.8v0c0-1-0.6-1.6-3.4-2.2c-3.2-0.7-5.1-1.6-5.1-4.3v0
	c0-2.4,2.2-4.1,5.2-4.1c1.9,0,3.5,0.5,4.8,1.3c0.4,0.2,0.7,0.7,0.5,1.3c-0.1,0.4-0.5,0.8-1,0.8c-0.4,0-0.7,0-1-0.2
	c-1.2-0.7-2.3-1.1-3.5-1.1c-1.6,0-2.5,0.8-2.5,1.7v0c0,1.1,0.7,1.6,3.6,2.2c3.2,0.7,4.9,1.8,4.9,4.2v0
	C-295.1,285.2-297.3,286.8-300.5,286.8z M-309.5,286.7c-0.6,0-1.1-0.3-1.3-0.9l-1.2-2.7h-7.4l-1.3,2.7c-0.2,0.5-0.7,0.8-1.2,0.8
	c-0.3,0-0.6-0.1-0.8-0.4c-0.5-0.5-0.5-0.9-0.2-1.4l5.7-11.8c0.3-0.6,0.8-1,1.6-1h0.1c0.8,0,1.3,0.4,1.6,1l5.7,11.8
	c0.1,0.2,0.2,0.4,0.2,0.5C-308.2,286.2-308.7,286.7-309.5,286.7z M-315.7,275.2l-2.7,5.8h5.4L-315.7,275.2z M-326.3,286.6h-9
	c-0.7,0-1.4-0.6-1.4-1.3v-11.7c0-0.7,0.6-1.3,1.4-1.3h8.8c0.5,0,1,0.3,1.2,0.8c0.2,0.8-0.4,1.5-1.1,1.5h-7.5v3.7h6.6
	c0.7,0,1.3,0.6,1.2,1.3c-0.1,0.5-0.7,1-1.2,1h-6.5v3.8h7.6c0.5,0,1,0.3,1.2,0.8C-324.9,286-325.5,286.6-326.3,286.6z M-339.7,286.6
	h-8.2c-0.7,0-1.4-0.6-1.4-1.3v-11.8c0-0.7,0.7-1.3,1.5-1.2c0.7,0.1,1.2,0.7,1.2,1.3v10.8h6.9c0.5,0,1,0.3,1.2,0.8
	C-338.3,285.9-338.9,286.6-339.7,286.6z M-357.5,282h-3v3.4c0,0.6-0.5,1.2-1.2,1.3c-0.8,0.1-1.5-0.5-1.5-1.2v-11.8
	c0-0.7,0.6-1.3,1.4-1.3h4.7c3.6,0,5.8,1.9,5.8,4.8v0C-351.4,280.4-354.1,282-357.5,282z M-354.1,277.2c0-1.7-1.3-2.5-3.3-2.5h-3.1
	v5.1h3.1C-355.4,279.8-354.1,278.7-354.1,277.2L-354.1,277.2z M-375,289.8c-0.6,0.8-3.1-0.5-2.9-1.8c0.3-1.5,3.8-6.6,4-6.9
	c-0.3,0.2-1.1,0.8-2.3,0.8c-1.1,0-2.5-0.9-3-1.8c-1.9-3-0.4-7.8,1-8.2c1.5-0.3,2.9,0.9,2.6,2.1c-0.2,0.9-0.7,2.4-0.6,3.4
	c0.3,2,2.9,2.2,3.8,0.6c1.3-2.1,3.2-5.8,3.9-5.9c1.1-0.2,3.2,0.8,2.4,2.1C-367,275.7-374.4,289-375,289.8z M-385.5,281
	c-0.5-0.7-0.3-4.7-0.3-4.7c-0.3,0.3-4,4.9-5.4,5.7c-0.6,0.3-2.1-0.7-2.4-1.6c-0.3-0.8,0.4-3.8,0.4-3.8s-6,4.6-6.4,4.9
	s-0.8,0.5-1.3,0.3c-2.4-1-3-2.7-0.8-4.2c0,0,8.8-6,9-6.1c0.2-0.2,1.3-1,2.1-0.2c0.4,0.4,1.8,1.9,2,2.1c0.2,0.2,0.4,0,0.7-0.1
	c0.2-0.1,2-1.5,2.4-1.5c0.4,0,0.8,0.1,1.1,0.6c0.3,0.3,1.7,1.9,2,2.2c0.1,0.2,0.3,0.4,0.4,0.8c0.1,0.2,0.6,5.7-0.1,6.3
	C-383,282.6-385,281.8-385.5,281z"/>
</svg>
